<svg xmlns="http://www.w3.org/2000/svg" width="720" height="250" viewBox="0 0 720 250">
<g>
<path d="M 453.23 178.95 C443.86,181.56 432.38,178.22 425.30,170.84 C415.00,160.09 414.68,138.74 424.65,127.10 C434.15,115.99 452.33,113.89 462.15,122.75 L 466.00 126.23 L 466.00 91.00 L 481.00 91.00 L 481.00 179.09 L 466.50 178.50 L 466.19 174.80 L 465.89 171.10 L 461.42 174.51 C458.96,176.38 455.28,178.38 453.23,178.95 ZM 65.61 162.50 L 59.21 178.50 L 51.10 178.79 C45.55,178.99 43.00,178.72 43.00,177.94 C43.00,177.32 50.72,158.63 60.16,136.40 L 77.33 96.00 L 92.62 96.00 L 97.75 108.25 C100.57,114.99 108.30,133.27 114.94,148.88 C121.57,164.49 127.00,177.67 127.00,178.17 C127.00,178.67 123.30,178.95 118.77,178.79 L 110.54 178.50 L 103.70 161.96 ZM 188.66 177.18 C182.42,179.13 170.40,179.48 163.75,177.92 C151.74,175.08 140.17,165.08 135.91,153.84 C133.85,148.42 133.50,145.75 133.50,135.45 C133.50,123.49 133.53,123.33 137.33,115.65 C143.71,102.73 155.31,95.38 171.08,94.27 C180.85,93.58 190.74,95.34 198.13,99.07 C201.36,100.70 204.00,102.34 204.00,102.72 C204.00,103.10 201.71,105.60 198.90,108.28 C194.35,112.62 193.63,112.98 192.15,111.70 C186.89,107.11 171.48,106.12 163.75,109.87 C153.32,114.93 148.50,124.56 149.18,138.93 C149.70,149.83 153.10,156.75 160.34,161.68 C175.40,171.92 194.98,165.02 198.48,148.25 L 199.16 145.00 L 178.00 145.00 L 178.00 132.00 L 216.28 132.00 L 215.75 140.25 C214.52,159.07 204.98,172.08 188.66,177.18 ZM 313.31 174.69 C306.32,178.15 304.97,178.46 296.11,178.67 C284.63,178.95 280.97,178.15 271.78,173.31 C264.13,169.30 258.92,163.49 254.91,154.50 C251.51,146.91 251.03,130.55 253.92,121.04 C261.15,97.24 291.44,86.69 316.85,99.12 L 323.21 102.23 L 312.81 112.75 L 308.39 110.28 C304.75,108.25 302.52,107.80 295.73,107.72 C286.24,107.61 282.24,108.98 276.23,114.41 C270.76,119.35 267.84,126.52 267.66,135.42 C267.33,151.47 274.12,161.65 287.82,165.64 C300.99,169.47 314.74,161.41 317.48,148.25 L 318.16 145.00 L 296.00 145.00 L 296.00 131.96 L 334.50 132.50 L 334.83 136.50 C335.28,142.05 333.32,151.27 330.35,157.54 C326.43,165.82 321.77,170.51 313.31,174.69 ZM 361.00 159.31 L 360.50 178.50 L 353.46 178.79 C349.58,178.95 346.09,178.76 345.71,178.37 C345.32,177.98 345.00,164.24 345.00,147.83 L 345.00 118.00 L 360.00 118.00 L 360.00 124.66 L 365.75 121.89 C368.91,120.37 373.86,118.83 376.75,118.47 L 382.00 117.81 L 382.00 131.88 L 377.25 132.50 C368.48,133.66 367.29,134.08 364.39,137.11 L 361.50 140.13 ZM 595.78 166.25 L 595.50 178.50 L 568.75 178.77 C554.04,178.91 541.96,178.69 541.91,178.27 C540.81,168.50 541.01,167.85 546.87,161.55 C549.97,158.22 552.95,155.17 553.50,154.77 C554.05,154.36 563.85,154.02 575.28,154.02 L 596.06 154.00 ZM 443.46 165.12 C448.16,167.26 449.23,167.34 454.17,165.97 C461.56,163.92 466.73,154.79 465.65,145.70 C464.45,135.54 457.28,129.33 447.78,130.25 C439.57,131.04 434.03,136.60 433.24,144.87 C432.26,155.07 435.51,161.51 443.46,165.12 ZM 405.76 148.25 L 405.50 178.50 L 391.00 179.09 L 391.00 118.00 L 406.03 118.00 ZM 77.79 132.49 L 71.19 149.00 L 84.60 149.00 C91.97,149.00 98.00,148.66 98.01,148.25 C98.02,147.21 85.88,117.68 85.05,116.74 C84.68,116.32 81.41,123.41 77.79,132.49 ZM 406.00 91.00 L 406.00 109.00 L 391.00 109.00 L 391.00 91.00 Z" fill="rgb(34,25,65)"/>
<path d="M 678.00 81.00 L 678.00 106.00 L 640.50 106.00 C619.88,106.00 603.00,105.66 603.00,105.23 C603.00,104.81 608.29,99.19 614.77,92.73 L 626.53 81.00 Z" fill="rgb(100,162,182)"/>
<path d="M 631.00 117.00 L 631.00 142.00 L 564.56 142.00 L 576.44 130.00 L 550.00 130.00 L 550.00 118.07 C550.00,106.88 550.13,106.09 552.07,105.48 C553.21,105.12 564.61,104.97 577.41,105.15 L 600.67 105.48 L 604.12 102.49 C606.01,100.85 608.60,98.26 609.86,96.75 L 612.15 94.00 L 534.00 94.00 L 534.00 69.00 L 626.00 69.00 L 626.00 81.00 L 626.53 81.00 L 614.77 92.73 C608.29,99.19 603.00,104.81 603.00,105.23 C603.00,105.66 619.88,106.00 640.50,106.00 L 678.00 106.00 L 639.25 106.11 L 600.50 106.22 L 595.60 111.61 L 590.70 117.00 ZM 575.53 154.00 L 596.06 154.00 L 575.28 154.02 C563.85,154.02 554.05,154.36 553.50,154.77 C552.95,155.17 549.97,158.22 546.87,161.55 C542.72,166.01 541.41,167.64 541.39,171.68 C541.33,170.82 541.26,169.85 541.19,168.75 L 541.00 166.00 L 521.00 166.00 L 521.00 142.00 L 542.50 142.00 C554.33,142.00 564.00,142.36 564.00,142.79 C564.00,143.23 561.97,145.57 559.50,148.00 C557.03,150.43 555.00,152.77 555.00,153.21 C555.00,153.64 564.24,154.00 575.53,154.00 ZM 545.19 178.60 C549.75,178.79 558.63,178.87 568.75,178.77 C555.99,178.89 548.85,178.86 545.19,178.60 Z" fill="rgb(193,179,160)"/>
<path d="M 0.00 125.00 L 0.00 0.00 L 360.00 0.00 L 720.00 0.00 L 720.00 125.00 L 720.00 250.00 L 360.00 250.00 L 0.00 250.00 L 0.00 125.00 ZM 453.23 178.95 C455.28,178.38 458.96,176.38 461.42,174.51 L 465.89 171.10 L 466.19 174.80 L 466.50 178.50 L 473.75 178.79 L 481.00 179.09 L 481.00 135.04 L 481.00 91.00 L 473.50 91.00 L 466.00 91.00 L 466.00 108.62 L 466.00 126.23 L 462.15 122.75 C452.33,113.89 434.15,115.99 424.65,127.10 C414.68,138.74 415.00,160.09 425.30,170.84 C432.38,178.22 443.86,181.56 453.23,178.95 ZM 62.41 170.50 L 65.61 162.50 L 84.66 162.23 L 103.70 161.96 L 107.12 170.23 L 110.54 178.50 L 118.77 178.79 C123.30,178.95 127.00,178.67 127.00,178.17 C127.00,177.67 121.57,164.49 114.94,148.88 C108.30,133.27 100.57,114.99 97.75,108.25 L 92.62 96.00 L 84.97 96.00 L 77.33 96.00 L 60.16 136.40 C50.72,158.63 43.00,177.32 43.00,177.94 C43.00,178.72 45.55,178.99 51.10,178.79 L 59.21 178.50 L 62.41 170.50 ZM 188.66 177.18 C204.98,172.08 214.52,159.07 215.75,140.25 L 216.28 132.00 L 197.14 132.00 L 178.00 132.00 L 178.00 138.50 L 178.00 145.00 L 188.58 145.00 L 199.16 145.00 L 198.48 148.25 C194.98,165.02 175.40,171.92 160.34,161.68 C153.10,156.75 149.70,149.83 149.18,138.93 C148.50,124.56 153.32,114.93 163.75,109.87 C171.48,106.12 186.89,107.11 192.15,111.70 C193.63,112.98 194.35,112.62 198.90,108.28 C201.71,105.60 204.00,103.10 204.00,102.72 C204.00,102.34 201.36,100.70 198.13,99.07 C190.74,95.34 180.85,93.58 171.08,94.27 C155.31,95.38 143.71,102.73 137.33,115.65 C133.53,123.33 133.50,123.49 133.50,135.45 C133.50,145.75 133.85,148.42 135.91,153.84 C140.17,165.08 151.74,175.08 163.75,177.92 C170.40,179.48 182.42,179.13 188.66,177.18 ZM 313.31 174.69 C321.77,170.51 326.43,165.82 330.35,157.54 C333.32,151.27 335.28,142.05 334.83,136.50 L 334.50 132.50 L 315.25 132.23 L 296.00 131.96 L 296.00 138.48 L 296.00 145.00 L 307.08 145.00 L 318.16 145.00 L 317.48 148.25 C314.74,161.41 300.99,169.47 287.82,165.64 C274.12,161.65 267.33,151.47 267.66,135.42 C267.84,126.52 270.76,119.35 276.23,114.41 C282.24,108.98 286.24,107.61 295.73,107.72 C302.52,107.80 304.75,108.25 308.39,110.28 L 312.81 112.75 L 318.01 107.49 L 323.21 102.23 L 316.85 99.12 C291.44,86.69 261.15,97.24 253.92,121.04 C251.03,130.55 251.51,146.91 254.91,154.50 C258.92,163.49 264.13,169.30 271.78,173.31 C280.97,178.15 284.63,178.95 296.11,178.67 C304.97,178.46 306.32,178.15 313.31,174.69 ZM 361.00 159.31 L 361.50 140.13 L 364.39 137.11 C367.29,134.08 368.48,133.66 377.25,132.50 L 382.00 131.88 L 382.00 124.84 L 382.00 117.81 L 376.75 118.47 C373.86,118.83 368.91,120.37 365.75,121.89 L 360.00 124.66 L 360.00 121.33 L 360.00 118.00 L 352.50 118.00 L 345.00 118.00 L 345.00 147.83 C345.00,164.24 345.32,177.98 345.71,178.37 C346.09,178.76 349.58,178.95 353.46,178.79 L 360.50 178.50 L 361.00 159.31 ZM 405.76 148.25 L 406.03 118.00 L 398.51 118.00 L 391.00 118.00 L 391.00 148.54 L 391.00 179.09 L 398.25 178.79 L 405.50 178.50 L 405.76 148.25 ZM 595.78 166.25 L 596.06 154.00 L 575.53 154.00 C564.24,154.00 555.00,153.64 555.00,153.21 C555.00,152.77 557.03,150.43 559.50,148.00 C561.97,145.57 564.00,143.23 564.00,142.79 C564.00,142.36 554.33,142.00 542.50,142.00 L 521.00 142.00 L 521.00 154.00 L 521.00 166.00 L 531.00 166.00 L 541.00 166.00 L 541.19 168.75 C541.57,174.29 541.73,176.53 541.87,177.77 C541.97,178.76 547.75,178.98 568.75,178.77 L 595.50 178.50 L 595.78 166.25 ZM 631.00 129.50 L 631.00 117.00 L 610.85 117.00 L 590.70 117.00 L 595.60 111.61 L 600.50 106.22 L 639.25 106.11 L 678.00 106.00 L 678.00 93.50 L 678.00 81.00 L 652.00 81.00 L 626.00 81.00 L 626.00 75.00 L 626.00 69.00 L 580.00 69.00 L 534.00 69.00 L 534.00 81.50 L 534.00 94.00 L 573.08 94.00 L 612.15 94.00 L 609.86 96.75 C608.60,98.26 606.01,100.85 604.12,102.49 L 600.67 105.48 L 577.41 105.15 C564.61,104.97 553.21,105.12 552.07,105.48 C550.13,106.09 550.00,106.88 550.00,118.07 L 550.00 130.00 L 563.22 130.00 L 576.44 130.00 L 570.50 136.00 L 564.56 142.00 L 597.78 142.00 L 631.00 142.00 L 631.00 129.50 ZM 406.00 100.00 L 406.00 91.00 L 398.50 91.00 L 391.00 91.00 L 391.00 100.00 L 391.00 109.00 L 398.50 109.00 L 406.00 109.00 L 406.00 100.00 ZM 443.46 165.12 C435.51,161.51 432.26,155.07 433.24,144.87 C434.03,136.60 439.57,131.04 447.78,130.25 C457.28,129.33 464.45,135.54 465.65,145.70 C466.73,154.79 461.56,163.92 454.17,165.97 C449.23,167.34 448.16,167.26 443.46,165.12 ZM 77.79 132.49 C81.41,123.41 84.68,116.32 85.05,116.74 C85.88,117.68 98.02,147.21 98.01,148.25 C98.00,148.66 91.97,149.00 84.60,149.00 L 71.19 149.00 L 77.79 132.49 Z" fill="rgb(254,254,254)"/>
</g>
</svg>